
<svg width="20" height="22" viewBox="0 0 20 22" fill="none" xmlns="http://www.w3.org/2000/svg">
<g clip-path="url(#clip0_2111_2152)">
<path d="M5.20206 5.60183C5.20185 6.02645 5.03297 6.4336 4.73256 6.7337C4.43216 7.0338 4.02485 7.20227 3.60023 7.20206C3.17561 7.20185 2.76847 7.03297 2.46837 6.73256C2.16826 6.43216 1.99979 6.02485 2 5.60023C2.00021 5.17561 2.1691 4.76847 2.4695 4.46837C2.7699 4.16826 3.17721 3.99979 3.60183 4C4.02645 4.00021 4.4336 4.1691 4.7337 4.4695C5.0338 4.7699 5.20227 5.17721 5.20206 5.60183ZM5.25009 8.38762H2.04803V18.4101H5.25009V8.38762ZM10.3094 8.38762H7.1233V18.4101H10.2773V13.1507C10.2773 10.2208 14.0958 9.94863 14.0958 13.1507V18.4101H17.2578V12.062C17.2578 7.12281 11.6062 7.30693 10.2773 9.73249L10.3094 8.38762Z" fill="#fff"/>
</g>
<defs>
<clipPath id="clip0_2111_2152">
<rect width="19.2124" height="21.5281" fill="white" transform="translate(0.287598 0.129395)"/>
</clipPath>
</defs>
</svg>
