
<svg width="20" height="22" viewBox="0 0 20 22" fill="none" xmlns="http://www.w3.org/2000/svg">
<g clip-path="url(#clip0_2111_2149)">
<path d="M10.0052 3C12.1802 3 12.4515 3.00801 13.3049 3.04803C14.1574 3.08806 14.7378 3.22174 15.2485 3.42027C15.7769 3.6236 16.222 3.89898 16.667 4.34326C17.0741 4.74344 17.3891 5.22751 17.59 5.76178C17.7878 6.27171 17.9223 6.85288 17.9623 7.70543C17.9999 8.55878 18.0103 8.83015 18.0103 11.0052C18.0103 13.1802 18.0023 13.4515 17.9623 14.3049C17.9223 15.1574 17.7878 15.7378 17.59 16.2485C17.3897 16.7831 17.0746 17.2673 16.667 17.667C16.2668 18.074 15.7827 18.3889 15.2485 18.59C14.7386 18.7878 14.1574 18.9223 13.3049 18.9623C12.4515 18.9999 12.1802 19.0103 10.0052 19.0103C7.83015 19.0103 7.55878 19.0023 6.70543 18.9623C5.85288 18.9223 5.27251 18.7878 4.76178 18.59C4.22729 18.3895 3.74314 18.0745 3.34326 17.667C2.93613 17.2669 2.62115 16.7829 2.42027 16.2485C2.22174 15.7386 2.08806 15.1574 2.04803 14.3049C2.01041 13.4515 2 13.1802 2 11.0052C2 8.83015 2.00801 8.55878 2.04803 7.70543C2.08806 6.85208 2.22174 6.27251 2.42027 5.76178C2.62059 5.22718 2.93565 4.74298 3.34326 4.34326C3.74326 3.93599 4.22738 3.62098 4.76178 3.42027C5.27251 3.22174 5.85208 3.08806 6.70543 3.04803C7.55878 3.01041 7.83015 3 10.0052 3ZM10.0052 7.00258C8.94361 7.00258 7.92553 7.42428 7.17491 8.17491C6.42428 8.92553 6.00258 9.94361 6.00258 11.0052C6.00258 12.0667 6.42428 13.0848 7.17491 13.8354C7.92553 14.586 8.94361 15.0077 10.0052 15.0077C11.0667 15.0077 12.0848 14.586 12.8354 13.8354C13.586 13.0848 14.0077 12.0667 14.0077 11.0052C14.0077 9.94361 13.586 8.92553 12.8354 8.17491C12.0848 7.42428 11.0667 7.00258 10.0052 7.00258ZM15.2085 6.80245C15.2085 6.53706 15.1031 6.28254 14.9154 6.09489C14.7278 5.90723 14.4732 5.8018 14.2079 5.8018C13.9425 5.8018 13.688 5.90723 13.5003 6.09489C13.3126 6.28254 13.2072 6.53706 13.2072 6.80245C13.2072 7.06784 13.3126 7.32235 13.5003 7.51001C13.688 7.69767 13.9425 7.80309 14.2079 7.80309C14.4732 7.80309 14.7278 7.69767 14.9154 7.51001C15.1031 7.32235 15.2085 7.06784 15.2085 6.80245ZM10.0052 8.60361C10.6421 8.60361 11.2529 8.85663 11.7033 9.307C12.1537 9.75738 12.4067 10.3682 12.4067 11.0052C12.4067 11.6421 12.1537 12.2529 11.7033 12.7033C11.2529 13.1537 10.6421 13.4067 10.0052 13.4067C9.36823 13.4067 8.75738 13.1537 8.307 12.7033C7.85663 12.2529 7.60361 11.6421 7.60361 11.0052C7.60361 10.3682 7.85663 9.75738 8.307 9.307C8.75738 8.85663 9.36823 8.60361 10.0052 8.60361Z" fill="#fff"/>
</g>
<defs>
<clipPath id="clip0_2111_2149">
<rect width="19.2124" height="21.5281" fill="white" transform="translate(0.762695 0.129395)"/>
</clipPath>
</defs>
</svg>
