<svg viewBox="0 0 1024 1024" fill="none" xmlns="http://www.w3.org/2000/svg">
<rect  fill=""/>
<rect  fill=""/>
<path d="M427.409 486.288C437.809 486.288 447.409 486.288 457.309 486.288C457.309 476.288 457.309 466.688 457.309 456.688C461.109 456.688 464.509 456.688 468.309 456.688C468.309 466.388 468.309 475.888 468.309 486.288C476.109 486.288 483.509 486.288 491.009 486.288C491.009 491.688 491.009 496.288 491.009 501.588C487.909 501.788 484.909 501.988 481.509 502.288C481.509 507.688 481.509 512.888 481.509 518.688C491.409 518.688 501.209 518.688 511.409 518.688C511.409 533.988 511.409 548.688 511.409 563.488C517.209 564.588 521.509 563.988 525.609 559.488C531.309 553.288 538.109 547.988 544.509 542.488C550.609 537.188 558.509 537.788 565.609 536.488C592.809 531.288 620.109 526.588 647.409 521.588C680.809 515.488 714.209 509.288 747.609 503.188C748.709 502.988 749.809 503.188 752.109 503.188C746.809 510.488 742.109 517.088 737.409 523.688C720.709 546.988 704.009 570.288 687.309 593.688C687.209 593.788 687.009 593.888 687.009 594.088C684.009 604.088 676.609 604.388 667.609 604.388C546.109 604.088 424.709 604.188 303.209 604.288C298.109 604.288 295.309 602.788 292.709 598.288C284.509 583.888 275.809 569.788 267.009 554.988C293.909 554.988 320.409 554.988 347.409 554.988C347.409 542.888 347.409 531.288 347.409 518.988C357.809 518.988 367.909 518.988 378.409 518.988C378.409 503.088 378.409 487.788 378.409 472.188C388.909 472.188 399.009 472.188 409.409 472.188C409.409 487.488 409.409 502.588 409.409 518.088C415.409 518.088 421.109 518.088 427.309 518.088C427.409 507.588 427.409 497.288 427.409 486.288ZM469.309 502.288C461.309 502.288 453.909 502.288 446.609 502.288C446.609 507.788 446.609 512.888 446.609 518.188C454.309 518.188 461.709 518.188 469.309 518.188C469.309 512.788 469.309 507.688 469.309 502.288ZM681.609 555.188C686.309 555.188 689.609 551.688 689.509 546.988C689.409 542.388 686.109 538.888 681.809 538.788C677.209 538.688 673.309 542.588 673.409 547.288C673.409 551.988 676.809 555.188 681.609 555.188ZM458.309 543.888C458.309 549.188 461.109 552.088 466.109 552.088C470.409 552.088 473.509 548.888 473.509 544.488C473.609 540.288 469.409 536.088 465.209 536.188C461.509 536.288 458.309 539.888 458.309 543.888ZM377.509 544.188C377.409 548.688 380.209 551.788 384.509 551.988C388.909 552.188 392.209 549.288 392.409 544.988C392.709 540.688 389.309 536.688 385.309 536.388C381.209 536.288 377.609 539.788 377.509 544.188ZM500.409 544.488C500.509 540.588 496.909 536.388 493.209 536.288C489.209 536.088 485.809 539.488 485.609 543.788C485.409 548.288 489.209 552.388 493.509 552.388C496.909 552.288 500.409 548.288 500.409 544.488ZM431.309 544.288C431.209 549.088 433.709 551.988 438.209 552.088C442.509 552.188 446.209 548.888 446.309 544.488C446.509 540.188 443.009 536.688 438.509 536.688C434.109 536.688 431.409 539.488 431.309 544.288ZM418.709 543.988C418.709 539.388 415.709 536.388 411.309 536.588C407.009 536.688 404.409 539.788 404.409 544.588C404.409 548.988 407.409 551.988 411.909 552.088C416.009 552.088 418.709 548.888 418.709 543.988Z" fill="black"/>
<path d="M280.009 620.188C437.209 620.188 593.609 620.188 751.609 620.188C747.209 625.088 743.609 629.188 739.809 633.088C704.609 669.588 662.109 694.188 614.209 709.688C590.009 717.488 565.209 722.188 539.709 724.188C475.309 729.088 414.909 716.288 358.309 685.288C340.109 675.288 322.909 663.688 307.409 649.888C298.009 641.488 289.909 631.788 281.209 622.688C280.809 622.188 280.609 621.488 280.009 620.188ZM321.109 628.588C320.909 628.788 320.609 629.088 320.409 629.288C328.209 635.688 335.909 642.188 343.709 648.588C344.709 649.388 346.109 649.688 347.409 649.988C361.909 653.388 375.409 650.688 387.609 642.388C390.209 640.588 392.309 640.288 394.709 642.188C402.709 648.388 412.009 650.988 421.909 651.888C434.409 652.988 446.709 651.488 457.009 643.688C461.209 640.488 463.809 640.888 467.809 643.688C485.009 655.588 512.409 654.888 528.609 642.288C531.009 640.388 532.309 640.588 534.609 642.288C552.609 654.988 577.709 655.588 595.409 643.588C599.109 641.088 601.609 641.188 605.509 643.388C625.209 654.888 645.309 655.588 665.309 644.088C669.309 641.788 672.109 640.888 676.209 643.888C679.409 646.288 684.509 649.488 687.209 648.488C693.309 646.088 698.509 641.188 703.609 637.688C694.309 634.288 685.409 631.688 677.309 627.688C671.909 624.988 667.909 624.788 662.809 627.988C645.209 638.988 627.109 638.988 609.309 628.488C602.509 624.488 596.809 623.788 590.809 629.188C589.709 630.188 588.209 630.688 586.909 631.288C570.409 638.588 554.409 637.588 539.109 627.988C534.109 624.788 529.709 624.188 524.409 627.688C515.809 633.388 506.209 636.188 495.709 636.088C485.209 635.988 476.109 631.888 467.409 626.588C463.809 624.388 460.509 624.088 456.809 626.488C437.709 639.188 418.309 639.488 398.809 627.688C393.409 624.388 389.109 624.588 383.809 627.988C372.709 635.088 360.309 637.888 347.209 635.188C338.209 633.288 329.709 630.788 321.109 628.588ZM673.509 657.288C671.409 654.288 669.209 654.488 666.709 656.288C658.709 662.188 649.309 664.188 639.709 665.088C626.809 666.288 615.209 661.988 604.009 656.288C601.009 654.788 598.809 654.688 595.809 656.488C575.609 668.588 555.209 668.288 535.209 656.088C532.609 654.488 530.809 654.388 528.209 656.088C507.209 668.888 486.109 668.388 465.209 655.788C462.709 654.288 461.109 654.188 458.609 655.888C451.309 660.988 443.209 663.888 434.209 664.988C420.009 666.688 407.309 662.688 395.009 656.388C393.409 655.588 391.009 654.488 389.609 655.088C382.609 658.088 375.809 661.488 368.909 664.788C373.109 667.288 377.709 669.888 382.209 672.588C384.709 674.088 386.809 674.488 389.409 672.488C390.609 671.588 393.409 671.488 394.609 672.288C402.709 677.988 411.709 680.988 421.509 681.688C434.509 682.688 447.109 681.088 458.109 673.588C461.609 671.288 463.709 671.288 467.309 673.388C487.309 685.188 507.609 684.988 527.609 673.488C531.109 671.488 533.209 671.588 536.409 673.488C553.909 684.188 572.509 685.088 590.509 676.388C598.109 672.688 603.109 671.988 610.409 676.288C615.509 679.288 623.109 682.088 628.209 680.488C644.409 675.288 659.509 667.288 673.509 657.288ZM438.109 694.588C495.509 707.988 551.109 707.188 606.809 689.788C601.509 685.388 599.909 685.088 595.809 687.288C575.609 698.088 555.409 697.188 535.409 687.088C532.109 685.388 529.909 685.588 526.909 687.188C509.609 696.588 491.409 697.488 473.409 690.088C465.609 686.888 459.409 684.988 451.809 690.088C448.409 692.388 443.609 692.888 438.109 694.588Z" fill="black"/>
<path d="M489.909 185.688C497.709 185.688 504.809 185.688 512.209 185.688C512.209 172.488 512.209 159.688 512.209 146.988C502.209 143.688 497.109 134.288 499.509 123.988C501.509 115.388 511.409 108.788 520.009 110.188C530.109 111.788 537.009 119.988 536.409 130.088C535.909 136.988 532.609 142.288 526.309 145.688C525.109 146.388 523.509 147.788 523.509 148.888C523.309 160.888 523.409 172.888 523.409 185.388C531.009 185.388 538.409 185.388 546.509 185.388C546.509 297.088 546.509 408.288 546.509 519.388C541.109 523.088 535.609 526.888 529.409 531.088C529.409 521.088 529.409 511.688 529.409 501.688C524.609 501.688 520.309 501.388 516.109 501.788C511.409 502.188 509.709 500.888 509.909 495.888C510.409 487.488 510.009 478.988 510.009 470.088C503.009 470.088 496.609 470.088 489.909 470.088C489.909 375.188 489.909 280.788 489.909 185.688Z" fill="black"/>
<path d="M601.709 199.488C601.709 211.488 601.709 222.888 601.709 234.988C609.209 234.988 616.609 234.988 624.209 234.988C624.309 236.988 624.509 238.488 624.509 239.888C624.709 326.888 624.909 413.788 625.209 500.788C625.209 504.888 624.409 506.688 619.809 507.388C603.209 510.188 586.709 513.588 570.109 516.788C569.609 516.888 569.109 516.688 568.209 516.588C568.209 422.988 568.209 329.488 568.209 235.388C575.409 235.388 582.809 235.388 590.609 235.388C590.609 223.088 590.609 211.388 590.609 199.788C581.809 196.988 577.009 190.588 576.709 181.688C576.509 173.688 581.509 166.888 590.509 163.288C590.509 160.288 590.509 157.088 590.509 153.988C590.609 151.188 591.509 149.088 594.809 149.088C598.109 149.088 600.809 149.888 601.409 153.588C601.509 154.088 601.509 154.588 601.509 155.088C600.709 160.388 602.109 164.088 607.309 167.188C613.409 170.788 615.309 177.388 614.309 184.188C613.209 191.488 609.509 197.288 601.709 199.488Z" fill="black"/>
<path d="M412.109 266.688C419.809 266.688 427.109 266.688 434.609 266.688C434.609 254.488 434.609 242.688 434.609 230.988C421.709 225.188 417.409 212.888 424.409 202.088C425.709 200.088 427.509 197.788 429.609 196.988C434.409 195.288 434.809 192.088 434.809 187.788C434.809 185.588 435.709 182.588 437.309 181.288C440.909 178.588 445.309 181.288 445.509 185.988C445.609 188.688 445.509 191.288 445.509 194.088C454.609 197.988 459.709 204.788 459.009 214.588C458.409 222.488 453.709 227.988 445.709 230.288C445.709 242.188 445.709 254.088 445.709 266.488C453.209 266.488 460.509 266.488 468.109 266.488C468.109 323.888 468.109 380.688 468.109 438.188C458.609 438.188 449.309 438.188 439.509 438.188C439.509 448.788 439.509 458.888 439.509 469.288C435.709 469.288 432.509 469.288 428.809 469.288C428.809 464.388 428.809 459.388 428.809 453.988C423.009 453.988 417.809 453.988 412.109 453.988C412.109 391.688 412.109 329.588 412.109 266.688Z" fill="black"/>
<path d="M645.409 503.088C645.409 457.588 645.409 412.488 645.409 366.888C653.509 366.888 661.209 366.888 669.309 366.888C669.309 354.588 669.309 342.788 669.309 330.988C656.909 324.588 653.009 314.888 658.809 303.488C660.109 300.988 662.309 297.888 664.709 297.188C669.509 295.688 669.509 292.588 669.409 288.888C669.309 283.188 669.909 282.888 675.809 283.088C679.109 283.188 680.909 284.488 680.409 287.888C679.809 292.488 681.009 295.388 685.509 298.288C696.309 305.188 695.209 321.988 683.909 328.188C680.909 329.788 680.209 331.588 680.209 334.788C680.409 345.288 680.309 355.788 680.309 366.988C686.209 366.988 692.009 367.188 697.809 366.888C701.309 366.788 702.309 367.988 702.309 371.488C702.209 410.288 702.209 449.188 702.309 487.988C702.309 491.188 701.509 492.488 698.009 493.088C680.609 496.188 663.309 499.688 645.409 503.088Z" fill="black"/>
<path d="M367.609 321.488C367.609 332.388 367.609 342.888 367.609 353.888C375.409 353.888 383.209 353.888 391.209 353.888C391.209 387.488 391.209 420.488 391.209 454.088C381.109 454.088 371.009 454.088 360.509 454.088C360.509 470.088 360.509 485.488 360.509 501.188C351.809 501.188 343.609 501.188 334.909 501.188C334.909 452.088 334.909 403.288 334.909 354.188C342.009 354.188 349.009 354.188 356.709 354.188C356.709 347.888 356.709 341.788 356.709 335.688C356.709 333.488 356.609 331.388 356.709 329.188C357.009 324.688 356.409 321.588 351.609 318.888C343.709 314.388 341.409 305.088 344.709 296.688C347.609 289.288 356.009 284.388 364.309 285.188C372.309 285.988 379.109 292.188 380.409 299.888C382.009 309.288 378.109 316.688 369.609 320.588C369.109 320.988 368.409 321.188 367.609 321.488Z" fill="black"/>
<path d="M694.509 210.788C696.309 207.788 698.409 202.788 701.709 198.788C709.509 189.488 720.109 186.188 731.709 188.488C742.909 190.688 750.709 197.788 753.909 208.988C754.809 212.088 756.709 212.588 759.109 212.988C766.609 214.488 772.509 221.188 773.109 229.088C773.809 237.488 769.809 244.488 762.409 247.488C761.109 247.988 759.509 248.488 758.109 248.488C733.309 248.488 708.509 248.288 683.709 248.288C675.109 248.288 669.109 244.188 667.209 236.988C665.009 228.688 668.209 219.688 675.709 216.288C681.409 213.688 687.609 212.688 694.509 210.788Z" fill="black"/>
<path d="M339.109 211.888C356.209 213.088 364.209 227.888 355.509 241.588C352.709 245.988 348.509 248.188 343.409 248.188C318.309 248.288 293.109 248.188 268.009 248.288C261.009 248.288 257.409 243.788 254.909 238.488C251.909 232.088 253.209 225.588 257.809 220.388C262.309 215.188 268.109 212.088 275.309 212.988C277.909 213.288 279.509 212.788 280.309 209.788C284.309 195.488 295.009 187.888 310.309 187.888C323.609 187.888 334.609 196.688 338.409 210.388C338.609 210.788 338.809 211.188 339.109 211.888Z" fill="black"/>
<path d="M287.509 535.888C283.909 535.888 281.009 535.888 277.509 535.888C277.509 508.888 277.509 481.988 277.509 454.988C270.509 451.888 265.609 447.588 264.109 439.988C262.509 431.888 266.109 423.488 273.609 420.088C276.809 418.688 277.509 416.888 277.409 413.688C277.209 407.988 277.309 402.388 277.309 396.688C277.309 393.488 278.309 391.088 282.009 390.988C285.709 390.988 287.409 393.088 287.409 396.588C287.509 402.588 287.209 408.588 287.609 414.588C287.709 416.288 289.109 418.488 290.509 419.388C296.909 423.288 301.209 428.688 301.209 436.188C301.209 443.988 297.609 449.988 289.709 453.088C288.509 453.588 287.509 456.488 287.509 458.288C287.409 482.088 287.409 505.888 287.409 529.688C287.509 531.688 287.509 533.488 287.509 535.888Z" fill="black"/>
<path d="M757.509 485.588C753.609 485.588 750.509 485.588 746.809 485.588C746.809 475.288 746.809 464.988 746.809 454.988C731.509 449.088 728.809 434.688 738.009 423.688C738.809 422.688 739.809 421.388 741.009 421.088C747.109 419.588 746.909 415.188 746.709 410.388C746.509 405.888 746.709 401.388 746.609 396.888C746.609 393.088 748.609 391.388 752.109 391.388C755.809 391.388 757.509 393.388 757.509 397.088C757.409 403.088 757.309 409.088 757.609 415.088C757.709 416.788 759.009 418.988 760.409 419.888C766.909 423.988 770.409 429.688 770.109 437.188C769.809 444.188 766.409 449.588 760.009 453.088C758.709 453.788 757.709 456.088 757.709 457.688C757.409 466.888 757.509 475.988 757.509 485.588Z" fill="black"/>
<path d="M757.409 530.488C757.409 540.088 757.409 549.688 757.409 559.188C757.409 568.588 757.409 578.088 757.409 587.988C760.709 587.988 763.509 587.988 766.309 587.988C772.209 587.988 776.109 591.088 776.009 595.588C775.909 600.388 771.809 603.788 766.009 603.788C752.409 603.788 738.709 603.788 725.109 603.788C718.009 603.788 710.909 603.788 702.809 603.788C706.609 598.388 709.609 593.688 713.109 589.388C713.909 588.388 716.009 588.088 717.509 588.088C727.009 587.988 736.409 587.988 746.609 587.988C746.609 583.588 746.609 579.488 746.609 575.388C746.609 569.888 747.109 564.388 746.509 558.888C745.109 547.788 749.009 538.588 757.409 530.488Z" fill="black"/>
<path d="M275.809 603.788C268.309 603.788 261.609 604.088 254.909 603.688C251.109 603.488 247.809 599.288 248.009 595.788C248.209 591.588 251.309 588.788 255.709 588.188C262.409 587.188 267.609 588.588 270.409 595.488C271.509 598.188 273.609 600.588 275.809 603.788Z" fill="black"/>
<path d="M448.309 156.988C448.309 160.988 445.209 163.888 440.909 163.988C436.909 164.088 433.609 160.888 433.609 156.888C433.609 152.788 436.809 149.788 440.909 149.888C445.009 149.888 448.309 153.088 448.309 156.988Z" fill="black"/>
<path d="M596.709 132.888C592.409 132.988 589.509 130.088 589.509 125.888C589.509 121.988 592.509 118.888 596.209 118.888C600.009 118.888 603.309 121.888 603.509 125.488C603.709 129.788 600.909 132.788 596.709 132.888Z" fill="black"/>
<path d="M757.509 316.688C757.609 320.688 754.409 324.088 750.509 324.088C746.809 324.088 743.809 320.988 743.709 317.088C743.709 313.388 746.809 310.088 750.509 309.988C754.409 309.888 757.409 312.788 757.509 316.688Z" fill="black"/>
<path d="M290.409 316.888C290.409 320.788 287.309 323.988 283.609 323.888C279.909 323.788 276.409 320.488 276.509 316.988C276.509 313.288 279.809 309.988 283.409 309.988C287.209 309.888 290.509 313.088 290.409 316.888Z" fill="black"/>
<path d="M263.4 802.7C268.533 804.167 272.567 806.633 275.5 810.1C278.433 813.567 279.9 817.567 279.9 822.1C279.9 826.3 278.2 830.267 274.8 834C271.467 837.667 267.267 840.6 262.2 842.8C257.2 845 252.433 846.1 247.9 846.1C244.567 846.1 241.3 845.933 238.1 845.6C232.767 845.267 228.633 845.1 225.7 845.1H213V842L222.4 834.6V773.8L212 770.4L214 766.4H225.6C231.667 766.4 237.633 766.2 243.5 765.8C248.033 765.533 251.367 765.4 253.5 765.4C257.967 765.4 261.9 766.267 265.3 768C268.7 769.733 271.3 772.1 273.1 775.1C274.967 778.033 275.9 781.333 275.9 785C275.9 788.333 274.733 791.533 272.4 794.6C270.133 797.6 267.133 800.233 263.4 802.5V802.7ZM262.4 790C262.4 784.733 261 780.433 258.2 777.1C255.4 773.767 251.233 772.1 245.7 772.1C241.7 772.1 238.1 773.233 234.9 775.5V802H249.2C253.333 802 256.567 800.967 258.9 798.9C261.233 796.767 262.4 793.767 262.4 789.9V790ZM250.7 838.8C255.5 838.8 259.3 837.6 262.1 835.2C264.967 832.8 266.4 829.567 266.4 825.5C266.4 820.3 264.867 816.1 261.8 812.9C258.8 809.7 254.3 808 248.3 807.8C247.833 807.867 247.2 807.9 246.4 807.9H234.9V836.2C239.367 838 244.633 838.9 250.7 838.9V838.8ZM322.306 845H291.906V841.9L301.306 834.5V773.9L290.906 770.4L292.906 766.4H323.306V769.5L313.806 776.9V837.4L324.306 841L322.306 845ZM417.666 845H387.266V841.9L396.666 834.5V808.1H357.166V837.4L367.666 841L365.666 845H335.266V841.9L344.666 834.5V773.9L334.266 770.4L336.266 766.4H366.666V769.5L357.166 776.9V803.6H396.666V773.9L386.266 770.4L388.266 766.4H418.666V769.5L409.166 776.9V837.4L419.666 841L417.666 845ZM509.676 845H479.276V841.9L488.676 834.6L480.976 816.1H447.376L439.176 835L456.776 841L454.776 845H424.376V841.9L433.776 834.5L462.076 769.6L472.476 764.5L501.676 834.9L511.676 841L509.676 845ZM464.576 776.5L449.376 811.6H479.176L464.576 776.5ZM590.688 845.2H572.088L550.088 809.7L545.388 806.3L546.888 803.3H552.488C557.021 803.3 560.588 802.167 563.188 799.9C565.854 797.567 567.188 794.4 567.188 790.4C567.188 785.133 565.721 780.767 562.788 777.3C559.854 773.767 555.588 772 549.988 772C546.254 772 542.821 773.1 539.688 775.3V837.6L550.188 841.2L548.188 845.2H517.788V842.1L527.188 834.7V773.9L516.788 770.5L518.788 766.5H530.388C536.454 766.5 542.421 766.3 548.288 765.9C552.554 765.633 555.721 765.5 557.788 765.5C562.254 765.5 566.221 766.4 569.688 768.2C573.221 770 575.921 772.433 577.788 775.5C579.721 778.567 580.688 781.933 580.688 785.6C580.688 788.933 579.654 792.133 577.588 795.2C575.521 798.2 572.788 800.833 569.388 803.1C566.054 805.3 562.521 806.967 558.788 808.1L565.288 810.3L580.788 835.3L592.688 841.2L590.688 845.2ZM648.947 802.7C654.08 804.167 658.114 806.633 661.047 810.1C663.98 813.567 665.447 817.567 665.447 822.1C665.447 826.3 663.747 830.267 660.347 834C657.014 837.667 652.814 840.6 647.747 842.8C642.747 845 637.98 846.1 633.447 846.1C630.114 846.1 626.847 845.933 623.647 845.6C618.314 845.267 614.18 845.1 611.247 845.1H598.547V842L607.947 834.6V773.8L597.547 770.4L599.547 766.4H611.147C617.214 766.4 623.18 766.2 629.047 765.8C633.58 765.533 636.914 765.4 639.047 765.4C643.514 765.4 647.447 766.267 650.847 768C654.247 769.733 656.847 772.1 658.647 775.1C660.514 778.033 661.447 781.333 661.447 785C661.447 788.333 660.28 791.533 657.947 794.6C655.68 797.6 652.68 800.233 648.947 802.5V802.7ZM647.947 790C647.947 784.733 646.547 780.433 643.747 777.1C640.947 773.767 636.78 772.1 631.247 772.1C627.247 772.1 623.647 773.233 620.447 775.5V802H634.747C638.88 802 642.114 800.967 644.447 798.9C646.78 796.767 647.947 793.767 647.947 789.9V790ZM636.247 838.8C641.047 838.8 644.847 837.6 647.647 835.2C650.514 832.8 651.947 829.567 651.947 825.5C651.947 820.3 650.414 816.1 647.347 812.9C644.347 809.7 639.847 808 633.847 807.8C633.38 807.867 632.747 807.9 631.947 807.9H620.447V836.2C624.914 838 630.18 838.9 636.247 838.9V838.8ZM721.453 764.4C728.52 764.4 734.753 766.1 740.153 769.5C745.62 772.9 749.853 777.6 752.853 783.6C755.853 789.6 757.353 796.4 757.353 804C757.353 811.8 755.086 819 750.553 825.6C746.02 832.2 740.386 837.433 733.653 841.3C726.92 845.1 720.486 847 714.353 847C707.286 847 701.02 845.333 695.553 842C690.153 838.6 685.953 833.9 682.953 827.9C679.953 821.9 678.453 815.1 678.453 807.5C678.453 799.7 680.72 792.5 685.253 785.9C689.786 779.233 695.42 774 702.153 770.2C708.886 766.333 715.32 764.4 721.453 764.4ZM715.653 772.8C711.253 772.8 707.22 774.1 703.553 776.7C699.953 779.233 697.12 782.8 695.053 787.4C692.986 791.933 691.953 797.033 691.953 802.7C691.953 809.233 692.986 815.233 695.053 820.7C697.12 826.1 700.253 830.433 704.453 833.7C708.72 836.967 713.953 838.6 720.153 838.6C724.553 838.6 728.553 837.333 732.153 834.8C735.82 832.2 738.686 828.633 740.753 824.1C742.82 819.5 743.853 814.367 743.853 808.7C743.853 802.1 742.82 796.1 740.753 790.7C738.686 785.233 735.553 780.9 731.353 777.7C727.153 774.433 721.92 772.8 715.653 772.8ZM843.324 845.2H824.724L802.724 809.7L798.024 806.3L799.524 803.3H805.124C809.658 803.3 813.224 802.167 815.824 799.9C818.491 797.567 819.824 794.4 819.824 790.4C819.824 785.133 818.358 780.767 815.424 777.3C812.491 773.767 808.224 772 802.624 772C798.891 772 795.458 773.1 792.324 775.3V837.6L802.824 841.2L800.824 845.2H770.424V842.1L779.824 834.7V773.9L769.424 770.5L771.424 766.5H783.024C789.091 766.5 795.058 766.3 800.924 765.9C805.191 765.633 808.358 765.5 810.424 765.5C814.891 765.5 818.858 766.4 822.324 768.2C825.858 770 828.558 772.433 830.424 775.5C832.358 778.567 833.324 781.933 833.324 785.6C833.324 788.933 832.291 792.133 830.224 795.2C828.158 798.2 825.424 800.833 822.024 803.1C818.691 805.3 815.158 806.967 811.424 808.1L817.924 810.3L833.424 835.3L845.324 841.2L843.324 845.2Z" fill="black"/>
</svg>
