<svg width="20" height="22" viewBox="0 0 20 22" fill="none" xmlns="http://www.w3.org/2000/svg">
<g clip-path="url(#clip0_2111_2158)">
<path d="M2.00321 18.0103L3.08551 14.0333C2.37236 12.8108 1.99769 11.4205 2.00001 10.0052C2.00001 5.58391 5.58392 2 10.0052 2C14.4264 2 18.0103 5.58391 18.0103 10.0052C18.0103 14.4264 14.4264 18.0103 10.0052 18.0103C8.59048 18.0126 7.20068 17.6382 5.97857 16.9256L2.00321 18.0103ZM7.1161 6.24914C7.01273 6.25555 6.91171 6.28278 6.81911 6.32919C6.73228 6.37836 6.653 6.43984 6.58376 6.5117C6.4877 6.60216 6.43327 6.68061 6.37483 6.75666C6.07897 7.14171 5.91982 7.61435 5.92254 8.09993C5.92414 8.49218 6.0266 8.87403 6.18671 9.23106C6.51412 9.95312 7.05286 10.7176 7.76452 11.4261C7.93583 11.5966 8.10314 11.7679 8.28326 11.9272C9.16654 12.7049 10.2191 13.2657 11.3572 13.565L11.8127 13.6347C11.9608 13.6427 12.1089 13.6315 12.2578 13.6243C12.491 13.6122 12.7186 13.5491 12.9246 13.4394C13.0575 13.3689 13.12 13.3337 13.2312 13.2633C13.2312 13.2633 13.2657 13.2408 13.3313 13.1912C13.4394 13.1112 13.5058 13.0543 13.5955 12.9607C13.6619 12.8918 13.7196 12.811 13.7636 12.7189C13.826 12.5884 13.8885 12.3395 13.9141 12.1321C13.9333 11.9736 13.9277 11.8872 13.9253 11.8335C13.9221 11.7479 13.8508 11.659 13.7732 11.6214L13.3073 11.4125C13.3073 11.4125 12.6108 11.1091 12.1858 10.9153C12.141 10.8958 12.0929 10.8847 12.0441 10.8825C11.9893 10.8769 11.934 10.8831 11.8818 10.9006C11.8296 10.9181 11.7817 10.9466 11.7415 10.9842V10.9826C11.7375 10.9826 11.6838 11.0282 11.1051 11.7295C11.0719 11.7741 11.0261 11.8078 10.9736 11.8264C10.9212 11.8449 10.8644 11.8474 10.8105 11.8335C10.7583 11.8196 10.7072 11.8019 10.6576 11.7807C10.5583 11.7391 10.5239 11.7231 10.4559 11.6934L10.4519 11.6918C9.99388 11.4919 9.56986 11.2218 9.19504 10.8913C9.09418 10.8033 9.00052 10.7072 8.90446 10.6143C8.58952 10.3127 8.31505 9.97154 8.08793 9.59929L8.0407 9.52324C8.00678 9.47214 7.97935 9.41702 7.95905 9.35914C7.92863 9.24146 8.00788 9.147 8.00788 9.147C8.00788 9.147 8.2024 8.93406 8.29286 8.81879C8.36818 8.72299 8.43846 8.62332 8.5034 8.5202C8.59786 8.3681 8.62748 8.212 8.57785 8.09112C8.3537 7.54357 8.12155 6.99842 7.883 6.45727C7.83577 6.35 7.69568 6.27315 7.5684 6.25794C7.52517 6.25314 7.48194 6.24834 7.43871 6.24513C7.33121 6.23979 7.22348 6.24086 7.1161 6.24834V6.24914Z" fill="#fff"/>
</g>
<defs>
<clipPath id="clip0_2111_2158">
<rect width="19.2124" height="21.5281" fill="white" transform="translate(0.5 0.129395)"/>
</clipPath>
</defs>
</svg>